<?xml version="1.0" encoding="utf-8"?>
<!-- Generator: Adobe Illustrator 25.2.0, SVG Export Plug-In . SVG Version: 6.00 Build 0)  -->
<svg version="1.1" id="Capa_1" xmlns="http://www.w3.org/2000/svg" xmlns:xlink="http://www.w3.org/1999/xlink" x="0px" y="0px"
	 viewBox="0 0 512 512" style="enable-background:new 0 0 512 512;" xml:space="preserve">
<style type="text/css">
	.st0{fill:#FFFFFF;}
	.st1{fill:none;}
	.st2{font-family:'FontysFrutiger-UltraBlack';}
	.st3{font-size:140px;}
</style>
<g>
</g>
<g>
	<g>
		<path class="st0" d="M256.6,0.5c-141.2,0-256,114.8-256,256c0,49.2,13.8,96.5,39.9,137.2L1.8,490.5c-2.4,6-1,12.7,3.6,17.3
			c3,3,7.1,4.7,11.3,4.7c2,0,4-0.4,6-1.2l96.8-38.8c40.7,26.1,88,39.9,137.2,39.9c141.2,0,256-114.8,256-256S397.8,0.5,256.6,0.5z
			 M256.6,480.5c-45.6,0-89.3-13.5-126.3-39.1c-2.7-1.9-5.9-2.8-9.1-2.8c-2,0-4,0.4-6,1.2l-70,28l28-70c2-5,1.3-10.7-1.7-15
			c-25.6-37-39.1-80.6-39.1-126.3c0-123.5,100.5-224,224-224s224,100.5,224,224S380.1,480.5,256.6,480.5z"/>
	</g>
</g>
<rect x="121.9" y="105.2" class="st1" width="129" height="129"/>
<text transform="matrix(1 0 0 1 121.8978 210.1792)" class="st0 st2 st3">O</text>
<text transform="matrix(6.123234e-17 -1 1 6.123234e-17 391.318 203.6406)" class="st0 st2 st3">1</text>
<path class="st0" d="M385.3,326.1c-21.5,49.8-71.9,81.9-128.4,81.9c-57.7,0-108.4-32.3-129.2-82.3c-3.6-8.6,0.5-18.4,9.1-22
	c2.1-0.9,4.3-1.3,6.4-1.3c6.6,0,12.8,3.9,15.5,10.4c15.6,37.4,54.1,61.6,98.1,61.6c43.1,0,81.4-24.2,97.6-61.7
	c3.7-8.5,13.6-12.4,22.1-8.7C385.1,307.7,389,317.6,385.3,326.1z"/>
</svg>
